<svg width="39" height="39" viewBox="0 0 39 39" fill="none" xmlns="http://www.w3.org/2000/svg">
<rect x="9.28003" y="7.75302" width="21.9669" height="24.5513" fill="black"/>
<path d="M19.6174 0C8.91308 0 0.234863 8.67822 0.234863 19.3826C0.234863 30.0869 8.91308 38.7651 19.6174 38.7651C30.3218 38.7651 39 30.0869 39 19.3826C39 8.67822 30.3218 0 19.6174 0ZM28.598 12.2291L21.3955 19.4317L27.7684 26.536C28.0038 26.7797 28.1341 27.1061 28.1311 27.4449C28.1282 27.7837 27.9923 28.1078 27.7527 28.3474C27.5131 28.587 27.189 28.7229 26.8502 28.7258C26.5114 28.7288 26.185 28.5985 25.9413 28.3632L19.5683 21.2588L12.464 28.3632C12.2203 28.5985 11.8939 28.7288 11.5551 28.7258C11.2163 28.7229 10.8922 28.587 10.6526 28.3474C10.413 28.1078 10.2771 27.7837 10.2742 27.4449C10.2712 27.1061 10.4015 26.7797 10.6368 26.536L17.8394 19.3335L11.4664 12.2291C11.231 11.9854 11.1008 11.659 11.1037 11.3202C11.1067 10.9814 11.2426 10.6573 11.4822 10.4177C11.7217 10.1781 12.0458 10.0422 12.3846 10.0393C12.7234 10.0364 13.0498 10.1666 13.2935 10.402L19.6665 17.5063L26.7709 10.402C27.0146 10.1666 27.341 10.0364 27.6798 10.0393C28.0186 10.0422 28.3427 10.1781 28.5823 10.4177C28.8219 10.6573 28.9578 10.9814 28.9607 11.3202C28.9636 11.659 28.8334 11.9854 28.598 12.2291Z" fill="white"/>
</svg>
