<svg width="15" height="15" viewBox="0 0 15 15" fill="none" xmlns="http://www.w3.org/2000/svg">
<path d="M10.697 2.37709H10.1027V1.78281C10.1027 1.6252 10.0401 1.47404 9.92863 1.3626C9.81718 1.25115 9.66602 1.18854 9.50841 1.18854C9.3508 1.18854 9.19964 1.25115 9.08819 1.3626C8.97675 1.47404 8.91413 1.6252 8.91413 1.78281V2.37709H5.34849V1.78281C5.34849 1.6252 5.28587 1.47404 5.17443 1.3626C5.06298 1.25115 4.91182 1.18854 4.75421 1.18854C4.5966 1.18854 4.44544 1.25115 4.334 1.3626C4.22255 1.47404 4.15994 1.6252 4.15994 1.78281V2.37709H3.56566C3.09283 2.37709 2.63936 2.56492 2.30501 2.89926C1.97067 3.23361 1.78284 3.68708 1.78284 4.15991V11.2912C1.78284 11.764 1.97067 12.2175 2.30501 12.5519C2.63936 12.8862 3.09283 13.074 3.56566 13.074H10.697C11.1698 13.074 11.6233 12.8862 11.9576 12.5519C12.2919 12.2175 12.4798 11.764 12.4798 11.2912V4.15991C12.4798 3.68708 12.2919 3.23361 11.9576 2.89926C11.6233 2.56492 11.1698 2.37709 10.697 2.37709ZM4.75421 10.1027C4.63667 10.1027 4.52178 10.0678 4.42405 10.0025C4.32632 9.93721 4.25015 9.84439 4.20517 9.7358C4.16019 9.62721 4.14842 9.50772 4.17135 9.39245C4.19428 9.27717 4.25088 9.17128 4.334 9.08817C4.41711 9.00506 4.523 8.94846 4.63827 8.92553C4.75355 8.9026 4.87304 8.91437 4.98163 8.95935C5.09022 9.00432 5.18303 9.08049 5.24833 9.17822C5.31363 9.27595 5.34849 9.39085 5.34849 9.50838C5.34849 9.666 5.28587 9.81715 5.17443 9.9286C5.06298 10.04 4.91182 10.1027 4.75421 10.1027ZM9.50841 10.1027H7.13131C6.9737 10.1027 6.82254 10.04 6.71109 9.9286C6.59965 9.81715 6.53703 9.666 6.53703 9.50838C6.53703 9.35077 6.59965 9.19962 6.71109 9.08817C6.82254 8.97672 6.9737 8.91411 7.13131 8.91411H9.50841C9.66602 8.91411 9.81718 8.97672 9.92863 9.08817C10.0401 9.19962 10.1027 9.35077 10.1027 9.50838C10.1027 9.666 10.0401 9.81715 9.92863 9.9286C9.81718 10.04 9.66602 10.1027 9.50841 10.1027ZM11.2912 6.53701H2.97139V4.15991C2.97139 4.0023 3.034 3.85114 3.14545 3.7397C3.25689 3.62825 3.40805 3.56564 3.56566 3.56564H4.15994V4.15991C4.15994 4.31752 4.22255 4.46868 4.334 4.58013C4.44544 4.69157 4.5966 4.75419 4.75421 4.75419C4.91182 4.75419 5.06298 4.69157 5.17443 4.58013C5.28587 4.46868 5.34849 4.31752 5.34849 4.15991V3.56564H8.91413V4.15991C8.91413 4.31752 8.97675 4.46868 9.08819 4.58013C9.19964 4.69157 9.3508 4.75419 9.50841 4.75419C9.66602 4.75419 9.81718 4.69157 9.92863 4.58013C10.0401 4.46868 10.1027 4.31752 10.1027 4.15991V3.56564H10.697C10.8546 3.56564 11.0057 3.62825 11.1172 3.7397C11.2286 3.85114 11.2912 4.0023 11.2912 4.15991V6.53701Z" fill="#231F20"/>
</svg>
