<svg width="9" height="12" viewBox="0 0 9 12" fill="none" xmlns="http://www.w3.org/2000/svg">
<path d="M3.92538 11.4313C0.614551 6.63157 0 6.13897 0 4.375C0 1.95875 1.95875 0 4.375 0C6.79125 0 8.75 1.95875 8.75 4.375C8.75 6.13897 8.13545 6.63157 4.82462 11.4313C4.60735 11.7451 4.14262 11.7451 3.92538 11.4313ZM4.375 6.19792C5.38177 6.19792 6.19792 5.38177 6.19792 4.375C6.19792 3.36823 5.38177 2.55208 4.375 2.55208C3.36823 2.55208 2.55208 3.36823 2.55208 4.375C2.55208 5.38177 3.36823 6.19792 4.375 6.19792Z" fill="black"/>
</svg>
