<svg width="32" height="25" viewBox="0 0 32 25" fill="none" xmlns="http://www.w3.org/2000/svg">
<path d="M32 12.2105C32 12.7219 31.7977 13.2122 31.4376 13.5738C31.0776 13.9354 30.5892 14.1385 30.08 14.1385H1.92C1.41078 14.1385 0.922425 13.9354 0.562355 13.5738C0.202285 13.2122 0 12.7219 0 12.2105C0 11.6992 0.202285 11.2088 0.562355 10.8472C0.922425 10.4857 1.41078 10.2825 1.92 10.2825H30.08C30.5892 10.2826 31.0776 10.4857 31.4376 10.8473C31.7977 11.2088 32 11.6992 32 12.2105ZM1.92 3.85596H30.08C30.5892 3.85596 31.0776 3.65283 31.4376 3.29126C31.7977 2.9297 32 2.43931 32 1.92798C32 1.41665 31.7977 0.926257 31.4376 0.564691C31.0776 0.203125 30.5892 0 30.08 0H1.92C1.41078 0 0.922425 0.203125 0.562355 0.564691C0.202285 0.926257 0 1.41665 0 1.92798C0 2.43931 0.202285 2.9297 0.562355 3.29126C0.922425 3.65283 1.41078 3.85596 1.92 3.85596ZM30.08 20.5651H1.92C1.41078 20.5651 0.922425 20.7682 0.562355 21.1298C0.202285 21.4914 0 21.9817 0 22.4931C0 23.0044 0.202285 23.4948 0.562355 23.8564C0.922425 24.2179 1.41078 24.4211 1.92 24.4211H30.08C30.5892 24.4211 31.0776 24.2179 31.4376 23.8564C31.7977 23.4948 32 23.0044 32 22.4931C32 21.9817 31.7977 21.4914 31.4376 21.1298C31.0776 20.7682 30.5892 20.5651 30.08 20.5651Z" fill="black"/>
</svg>
